<?xml version="1.0" encoding="iso-8859-1"?>
<!-- Generator: Adobe Illustrator 19.0.0, SVG Export Plug-In . SVG Version: 6.00 Build 0)  -->
<svg version="1.1" id="Capa_1" xmlns="http://www.w3.org/2000/svg" xmlns:xlink="http://www.w3.org/1999/xlink" x="0px" y="0px"
	 viewBox="0 0 487.302 487.302" style="enable-background:new 0 0 487.302 487.302;" xml:space="preserve">
<g>
	
		<linearGradient id="SVGID_1_" gradientUnits="userSpaceOnUse" x1="243.6511" y1="495.0269" x2="243.6511" y2="21.0849" gradientTransform="matrix(1 0 0 -1 0 488.9897)">
		<stop  offset="0" style="stop-color:#00EFD1"/>
		<stop  offset="1" style="stop-color:#00ACEA"/>
	</linearGradient>
	<path style="fill:url(#SVGID_1_);" d="M243.494,0.001C109.02-0.003,0.004,109.007,0.001,243.481
		c-0.002,64.582,25.654,126.52,71.322,172.184c94.91,95.264,249.078,95.551,344.342,0.641s95.551-249.078,0.641-344.342
		c-0.213-0.214-0.427-0.428-0.641-0.641C370.104,25.509,308.107-0.173,243.494,0.001L243.494,0.001z M243.494,466.989
		C120.259,466.989,20,366.73,20,243.495S120.259,20.001,243.494,20.001S466.988,120.26,466.988,243.495
		S366.729,466.989,243.494,466.989z"/>
	
		<linearGradient id="SVGID_2_" gradientUnits="userSpaceOnUse" x1="243.4942" y1="495.0269" x2="243.4942" y2="21.0849" gradientTransform="matrix(1 0 0 -1 0 488.9897)">
		<stop  offset="0" style="stop-color:#00EFD1"/>
		<stop  offset="1" style="stop-color:#00ACEA"/>
	</linearGradient>
	<path style="fill:url(#SVGID_2_);" d="M129.494,307.888c0.034,6.732,0.678,13.446,1.926,20.061
		c11.132,61.897,70.334,103.049,132.23,91.917c46.822-8.421,83.474-45.061,91.911-91.88c1.251-6.628,1.898-13.355,1.933-20.1
		v-34.391h-228L129.494,307.888z M243.494,401.94c-41.267,0.028-77.688-26.958-89.677-66.445h179.359
		C321.197,374.99,284.766,401.981,243.494,401.94z M149.494,293.495h188v14.393c0,2.451-0.339,4.607-0.533,7.607H150.027
		c-0.194-3-0.533-5.156-0.533-7.607V293.495z"/>
</g>
<g>
	
		<linearGradient id="SVGID_3_" gradientUnits="userSpaceOnUse" x1="347.2691" y1="495.0269" x2="347.2691" y2="21.0849" gradientTransform="matrix(1 0 0 -1 0 488.9897)">
		<stop  offset="0" style="stop-color:#00EFD1"/>
		<stop  offset="1" style="stop-color:#00ACEA"/>
	</linearGradient>
	<path style="fill:url(#SVGID_3_);" d="M347.269,137.8c-14.361-14.181-37.499-14.035-51.68,0.326
		c-14.055,14.233-14.055,37.121,0,51.354l51.525,51.784l0.155-0.1l0.156,0.1l51.524-51.784c14.181-14.361,14.035-37.499-0.326-51.68
		C384.39,123.745,361.502,123.745,347.269,137.8z"/>
	
		<linearGradient id="SVGID_4_" gradientUnits="userSpaceOnUse" x1="139.7193" y1="495.0269" x2="139.7193" y2="21.0849" gradientTransform="matrix(1 0 0 -1 0 488.9897)">
		<stop  offset="0" style="stop-color:#00EFD1"/>
		<stop  offset="1" style="stop-color:#00ACEA"/>
	</linearGradient>
	<path style="fill:url(#SVGID_4_);" d="M139.719,241.16l0.155,0.1l51.525-51.784c14.181-14.361,14.036-37.499-0.324-51.68
		c-14.233-14.056-37.122-14.056-51.355,0c-14.361-14.181-37.499-14.036-51.68,0.325c-14.055,14.233-14.055,37.122,0,51.355
		l51.524,51.784L139.719,241.16z"/>
</g>
<g>
</g>
<g>
</g>
<g>
</g>
<g>
</g>
<g>
</g>
<g>
</g>
<g>
</g>
<g>
</g>
<g>
</g>
<g>
</g>
<g>
</g>
<g>
</g>
<g>
</g>
<g>
</g>
<g>
</g>
</svg>
